<?xml version="1.0" encoding="UTF-8" standalone="no"?>
<svg
   xmlns:dc="http://purl.org/dc/elements/1.1/"
   xmlns:cc="http://creativecommons.org/ns#"
   xmlns:rdf="http://www.w3.org/1999/02/22-rdf-syntax-ns#"
   xmlns:svg="http://www.w3.org/2000/svg"
   xmlns="http://www.w3.org/2000/svg"
   xmlns:sodipodi="http://sodipodi.sourceforge.net/DTD/sodipodi-0.dtd"
   xmlns:inkscape="http://www.inkscape.org/namespaces/inkscape"
   version="1.1"
   id="svg2"
   xml:space="preserve"
   width="480"
   height="480"
   viewBox="0 0 480 480"
   sodipodi:docname="URAL HOLIDAYS COLOR BACGROUND.ai"><metadata
     id="metadata8"><rdf:RDF><cc:Work
         rdf:about=""><dc:format>image/svg+xml</dc:format><dc:type
           rdf:resource="http://purl.org/dc/dcmitype/StillImage" /></cc:Work></rdf:RDF></metadata><defs
     id="defs6"><clipPath
       clipPathUnits="userSpaceOnUse"
       id="clipPath20"><path
         d="M 0,360 H 360 V 0 H 0 Z"
         id="path18" /></clipPath></defs><sodipodi:namedview
     pagecolor="#ffffff"
     bordercolor="#666666"
     borderopacity="1"
     objecttolerance="10"
     gridtolerance="10"
     guidetolerance="10"
     inkscape:pageopacity="0"
     inkscape:pageshadow="2"
     inkscape:window-width="640"
     inkscape:window-height="480"
     id="namedview4" /><g
     id="g10"
     inkscape:groupmode="layer"
     inkscape:label="URAL HOLIDAYS COLOR BACGROUND"
     transform="matrix(1.3333333,0,0,-1.3333333,0,480)"><path
       d="M 0,0 H 359 V 359 H 0 Z"
       style="fill:#8a1538;fill-opacity:1;fill-rule:nonzero;stroke:none"
       id="path12" /><g
       id="g14" style="transform: translate(0px, -15px);"><g
         id="g16"
         clip-path="url(#clipPath20)"><g
           id="g22"
           transform="translate(271.3649,191.111)"><path
             d="m 0,0 c -0.586,0.507 -0.391,0.888 -0.284,1.259 0.62,2.16 1.2,4.334 1.879,6.476 0.515,1.626 1.345,3.131 1.834,4.782 1.377,4.649 2.705,9.322 4.331,13.887 0.932,2.616 1.755,5.262 2.635,7.891 0.191,0.569 0.565,1.227 0.072,1.758 -0.474,0.509 -1.118,0.098 -1.62,-0.065 -5.193,-1.687 -10.595,-2.484 -15.876,-3.786 -4.636,-1.144 -9.356,-1.833 -14.002,-2.873 -4.706,-1.053 -9.473,-1.679 -14.21,-2.507 -6.749,-1.179 -13.537,-2.044 -20.348,-2.793 -6.151,-0.675 -12.296,-1.469 -18.47,-1.836 -7.421,-0.44 -14.852,-0.85 -22.295,-0.692 -0.344,0.007 -0.686,0.048 -1.076,0.264 0.916,0.306 1.811,0.728 2.752,0.898 4.649,0.844 9.322,1.561 13.964,2.44 4.072,0.771 8.114,1.698 12.169,2.555 4.749,1.003 9.44,2.263 14.132,3.475 4.817,1.244 9.646,2.494 14.386,4.05 2.618,0.859 5.326,1.408 7.937,2.346 4.814,1.73 9.717,3.209 14.55,4.885 3.585,1.242 7.151,2.549 10.667,3.971 5.894,2.384 11.898,4.495 17.671,7.175 3.443,1.599 6.939,3.088 10.347,4.757 6.739,3.301 13.461,6.64 19.997,10.335 2.342,1.325 4.662,2.687 6.996,4.027 0.418,0.241 0.848,0.46 1.406,0.58 C 33.303,48.683 16.606,24.434 0,0"
             style="fill:#ffffff;fill-opacity:1;fill-rule:nonzero;stroke:none"
             id="path24" /></g><g
           id="g26"
           transform="translate(148.9731,195.5129)"><path
             d="m 0,0 v -0.005 c -3.632,0 -7.263,0.002 -10.895,-0.001 -1.967,-0.001 -1.964,-0.004 -1.957,-2.028 0.006,-1.949 0.004,-3.898 0.004,-5.846 0.001,-1.732 0.074,-1.823 1.78,-1.824 6.997,-0.007 13.995,-0.007 20.993,0.004 0.661,10e-4 1.33,0.051 1.981,0.164 2.114,0.367 2.969,1.052 3.137,3.16 0.341,4.269 -0.071,6.498 -5.211,6.389 C 6.556,-0.057 3.277,0 0,0 m -23.797,-11.489 c 0,6.908 -10e-4,13.816 0.002,20.723 0,1.892 0.007,1.893 1.947,1.893 10.805,0.002 21.609,0.017 32.413,-0.003 3.423,-0.006 6.787,-0.386 9.886,-2.021 3.794,-2.001 5.416,-5.349 5.589,-9.432 0.172,-4.063 0.301,-8.141 -0.307,-12.193 -0.173,-1.147 -0.842,-2.017 -1.64,-2.74 -0.717,-0.65 -0.563,-1.182 0.036,-1.635 1.888,-1.427 2.4,-3.458 2.449,-5.628 0.078,-3.453 0.004,-6.908 0.046,-10.361 0.011,-0.873 -0.313,-1.196 -1.151,-1.188 -2.877,0.027 -5.756,0.058 -8.633,0.026 -0.978,-0.01 -1.32,0.319 -1.287,1.313 0.067,2.034 0.039,4.073 0.02,6.109 -0.032,3.312 -1.762,5.268 -5.019,5.771 -1.411,0.219 -2.827,0.164 -4.242,0.165 -5.8,0.008 -11.601,-0.035 -17.401,0.031 -1.337,0.015 -1.677,-0.493 -1.659,-1.712 0.05,-3.408 -0.026,-6.819 0.046,-10.227 0.024,-1.137 -0.385,-1.466 -1.45,-1.45 -2.745,0.044 -5.491,0.049 -8.235,-0.004 -1.08,-0.021 -1.448,0.313 -1.44,1.442 0.049,7.04 0.025,14.081 0.025,21.121 z"
             style="fill:#ffffff;fill-opacity:1;fill-rule:nonzero;stroke:none"
             id="path28" /></g><g
           id="g30"
           transform="translate(220.6419,181.7915)"><path
             d="m 0,0 c -2.636,5.348 -5.34,10.726 -8.353,16.202 -0.32,-0.464 -0.432,-0.596 -0.511,-0.745 -2.548,-4.783 -5.1,-9.565 -7.635,-14.355 -0.686,-1.295 -0.556,-1.499 0.907,-1.501 4.732,-0.006 9.464,-0.004 14.196,0.006 C -0.974,-0.392 -0.507,-0.528 0,0 m -40.215,-20.255 c 0.67,2.186 1.79,3.839 2.675,5.595 2.356,4.671 4.764,9.315 7.172,13.959 2.576,4.97 5.183,9.925 7.765,14.892 1.647,3.17 3.293,6.341 4.894,9.534 0.387,0.773 0.904,1.131 1.753,1.129 4.961,-0.011 9.922,-0.006 14.883,-0.007 0.86,0 1.358,-0.284 1.79,-1.188 1.609,-3.362 3.394,-6.64 5.118,-9.947 1.951,-3.741 3.915,-7.475 5.859,-11.221 3.126,-6.025 6.242,-12.056 9.359,-18.086 0.626,-1.212 1.235,-2.433 1.858,-3.647 0.341,-0.664 0.129,-1.057 -0.597,-1.06 -3.72,-0.014 -7.44,0 -11.161,0.005 -0.702,0.001 -0.949,0.506 -1.217,1.044 -1.355,2.726 -2.758,5.428 -4.092,8.164 -0.492,1.008 -1.18,1.368 -2.306,1.362 -8.017,-0.038 -16.035,-0.034 -24.052,0.008 -1.236,0.006 -1.912,-0.448 -2.452,-1.562 -1.349,-2.781 -2.848,-5.488 -4.256,-8.24 -0.198,-0.388 -0.388,-0.726 -0.838,-0.728 -3.974,-0.011 -7.948,-0.006 -12.155,-0.006"
             style="fill:#ffffff;fill-opacity:1;fill-rule:nonzero;stroke:none"
             id="path32" /></g><g
           id="g34"
           transform="translate(65.5098,189.8347)"><path
             d="m 0,0 c 0,4.826 0,9.652 0,14.478 0,2.254 0.001,2.256 2.311,2.258 2.346,0.002 4.695,-0.053 7.039,0.02 1.274,0.041 1.702,-0.419 1.696,-1.69 -0.04,-8.766 -0.022,-17.533 -0.028,-26.3 -0.001,-1.332 0.092,-2.631 0.527,-3.92 0.661,-1.96 2.019,-3.098 3.967,-3.486 1.948,-0.388 3.913,-0.665 5.925,-0.626 3.496,0.068 6.996,0.054 10.493,0 1.697,-0.026 3.355,0.211 5.007,0.505 2.546,0.454 4.236,2.272 4.571,4.855 0.176,1.357 0.281,2.72 0.278,4.096 -0.016,8.191 -0.005,16.382 0.006,24.573 0.003,1.889 0.092,1.963 1.928,1.964 2.524,0.002 5.048,-0.032 7.571,0.014 1.105,0.021 1.481,-0.442 1.479,-1.504 -0.024,-9.873 0.017,-19.747 -0.052,-29.62 -0.017,-2.424 -0.416,-4.813 -1.458,-7.081 -1.801,-3.92 -5.09,-5.677 -9.079,-6.246 -9.204,-1.312 -18.468,-0.542 -27.706,-0.511 -2.628,0.009 -5.297,0.564 -7.692,1.792 -3.781,1.94 -5.793,5.16 -6.438,9.314 -0.246,1.582 -0.332,3.168 -0.336,4.762 C 0.001,-8.235 0.007,-4.118 0.007,0 Z"
             style="fill:#ffffff;fill-opacity:1;fill-rule:nonzero;stroke:none"
             id="path36" /></g><g
           id="g38"
           transform="translate(247.9878,184.1379)"><path
             d="m 0,0 c 0,6.95 0.041,13.901 -0.035,20.85 -0.015,1.369 0.503,1.915 1.717,1.807 2.744,-0.243 5.475,0.036 8.21,0.099 0.907,0.022 1.198,-0.381 1.227,-1.153 0.023,-0.619 0.007,-1.239 0.008,-1.859 0.002,-10.359 0.004,-20.718 0.007,-31.077 10e-4,-2.007 0.002,-2.02 2.065,-2.021 8.013,-0.006 16.026,-0.003 24.039,-0.002 1.708,0 1.807,-0.092 1.809,-1.799 0.003,-1.992 -0.087,-3.989 0.026,-5.974 0.072,-1.271 -0.393,-1.596 -1.577,-1.587 -5.754,0.042 -11.51,0.023 -17.265,0.021 -6.109,-0.002 -12.218,-0.005 -18.327,-0.014 -1.918,-0.003 -1.9,-0.012 -1.898,1.858 C 0.014,-13.9 0.009,-6.95 0.009,0 Z"
             style="fill:#ffffff;fill-opacity:1;fill-rule:nonzero;stroke:none"
             id="path40" /></g><g
           id="g42"
           transform="translate(277.6775,156.5625)"><path
             d="m 0,0 c 2.441,0 4.57,-0.076 6.69,0.027 1.368,0.066 1.379,-0.697 1.383,-1.665 0.004,-0.943 0.066,-1.723 -1.32,-1.694 -3.717,0.077 -7.437,0.031 -11.156,0.031 -0.486,0.001 -0.977,0.019 -1.459,-0.03 -1.04,-0.107 -1.787,-0.639 -1.854,-1.724 -0.071,-1.15 0.742,-1.684 1.739,-1.778 1.229,-0.116 2.475,-0.067 3.714,-0.074 1.815,-0.009 3.63,0.013 5.445,-0.009 4.535,-0.056 7.319,-4.146 5.511,-8.268 -0.719,-1.639 -2.184,-2.608 -4.006,-2.935 -1.797,-0.322 -3.608,-0.337 -5.424,-0.326 -2.922,0.017 -5.844,0.046 -8.765,0.003 -1.316,-0.019 -1.65,0.607 -1.652,1.802 -0.002,1.216 0.5,1.657 1.671,1.649 3.984,-0.028 7.968,-0.004 11.952,-0.013 0.905,-0.002 1.76,0.132 2.541,0.62 0.734,0.458 1.179,1.089 1.052,1.976 -0.121,0.853 -0.607,1.472 -1.452,1.726 -0.887,0.267 -1.777,0.504 -2.727,0.496 -2.656,-0.022 -5.314,-0.057 -7.968,0.021 -3.813,0.113 -6.031,2.888 -5.185,6.452 0.452,1.906 1.788,3.041 3.64,3.441 C -5.009,0.293 -2.332,-0.144 0,0"
             style="fill:#ffffff;fill-opacity:1;fill-rule:nonzero;stroke:none"
             id="path44" /></g><g
           id="g46"
           transform="translate(107.3635,153.2587)"><path
             d="m 0,0 c -1.24,0 -2.169,0.02 -3.096,-0.004 -3.232,-0.084 -5.701,-2.714 -5.694,-6.048 0.008,-3.166 2.373,-5.553 5.632,-5.626 1.855,-0.041 3.712,-0.029 5.567,0.006 3.006,0.057 5.203,1.868 5.735,4.677 C 8.65,-4.325 7.189,-1.81 4.627,-0.53 2.999,0.283 1.331,-0.167 0,0 m 0.082,3.296 c 1.783,-0.088 4.06,0.236 6.21,-0.734 3.692,-1.667 5.352,-4.642 5.125,-9.272 -0.178,-3.622 -2.407,-6.923 -5.965,-7.755 -4.139,-0.967 -8.43,-1.28 -12.526,0.394 -2.979,1.218 -4.565,3.675 -5.045,6.77 -0.721,4.645 1.465,8.474 5.823,10.126 1.877,0.712 3.934,0.474 6.378,0.471"
             style="fill:#ffffff;fill-opacity:1;fill-rule:nonzero;stroke:none"
             id="path48" /></g><g
           id="g50"
           transform="translate(175.7372,147.4539)"><path
             d="m 0,0 c 0,-1.593 0.003,-3.187 -0.001,-4.78 -0.002,-0.726 0.238,-1.175 1.073,-1.164 2.389,0.033 4.786,-0.079 7.167,0.072 2.922,0.186 4.903,2.675 5.02,5.671 C 13.392,3.216 10.441,5.691 8.062,5.827 5.768,5.958 3.461,5.855 1.159,5.851 0.36,5.85 -0.041,5.517 -0.014,4.642 0.036,3.096 0,1.547 0,0 m -3.127,-0.137 c 0,2.612 -0.001,5.224 10e-4,7.836 0,0.699 0.038,1.41 0.992,1.395 C 1.626,9.038 5.412,9.417 9.143,8.924 14.144,8.263 17.26,3.53 16.445,-1.448 15.738,-5.765 12.071,-9.018 8.126,-9.174 4.762,-9.306 1.404,-9.195 -1.953,-9.327 c -0.988,-0.038 -1.178,0.536 -1.174,1.354 0.014,2.612 0.005,5.224 0.005,7.836 z"
             style="fill:#ffffff;fill-opacity:1;fill-rule:nonzero;stroke:none"
             id="path52" /></g><g
           id="g54"
           transform="translate(226.2532,138.542)"><path
             d="m 0,0 c -1.315,-0.307 -2.503,-0.096 -3.68,-0.115 -0.346,-0.005 -0.518,0.267 -0.68,0.548 -0.566,0.98 -1.165,1.942 -1.726,2.925 -0.559,0.98 -1.329,1.375 -2.498,1.304 -1.765,-0.106 -3.541,-0.036 -5.312,-0.024 -0.423,0.003 -0.937,-0.143 -1.194,0.349 -0.244,0.465 0.169,0.78 0.32,1.175 0.748,1.958 2.304,1.997 4.018,1.93 1.625,-0.063 1.702,0.119 0.953,1.509 -0.55,1.021 -0.99,2.126 -2.069,2.811 -1.024,-0.529 -1.537,-1.537 -1.995,-2.491 -1.6,-3.331 -3.992,-6.173 -5.717,-9.423 -0.188,-0.354 -0.482,-0.64 -0.94,-0.641 -1.049,0 -2.098,0 -3.229,0 0.056,1.352 0.888,2.183 1.413,3.084 2.62,4.503 5.425,8.898 8.031,13.409 1.181,2.045 3.901,1.764 4.806,0.283 C -6.279,11.364 -3.168,6.031 -0.137,0.651 -0.058,0.511 -0.065,0.322 0,0"
             style="fill:#ffffff;fill-opacity:1;fill-rule:nonzero;stroke:none"
             id="path56" /></g><g
           id="g58"
           transform="translate(244.3969,138.0961)"><path
             d="m 0,0 c -0.238,1.755 -0.114,3.436 -0.116,5.11 -0.001,0.707 -0.215,1.257 -0.644,1.811 -2.595,3.347 -5.161,6.717 -7.735,10.081 -0.287,0.376 -0.738,0.729 -0.435,1.277 0.278,0.503 0.809,0.176 1.21,0.283 2.47,0.659 3.381,-1.292 4.551,-2.745 1.274,-1.582 2.439,-3.251 3.703,-4.841 0.896,-1.128 1.245,-1.113 2.108,0.056 1.523,2.06 3.006,4.149 4.496,6.233 0.726,1.016 3.021,1.66 4.144,1.126 0.696,-0.331 0.325,-0.716 0.087,-1.173 C 10.298,15.163 8.585,13.589 7.294,11.698 6.384,10.364 5.418,9.059 4.384,7.82 3.135,6.324 3.143,4.597 3.172,2.808 3.219,-0.175 3.105,-0.25 0,0"
             style="fill:#ffffff;fill-opacity:1;fill-rule:nonzero;stroke:none"
             id="path60" /></g><g
           id="g62"
           transform="translate(129.0028,147.4566)"><path
             d="M 0,0 C 0,2.568 0.003,5.135 -0.002,7.703 -0.004,8.568 0.063,9.253 1.265,9.217 2.382,9.183 3.36,9.157 3.376,7.711 3.4,5.63 3.394,3.55 3.395,1.469 3.397,-0.523 3.419,-2.516 3.377,-4.507 c -0.021,-1.029 0.4,-1.409 1.421,-1.398 3.187,0.034 6.375,-0.027 9.562,0.022 1.202,0.019 1.677,-0.403 1.624,-1.627 -0.07,-1.619 -0.224,-1.892 -1.663,-1.897 -4.294,-0.017 -8.589,0.024 -12.882,-0.043 -1.156,-0.018 -1.464,0.451 -1.454,1.482 0.028,2.656 0.01,5.312 0.01,7.968 z"
             style="fill:#ffffff;fill-opacity:1;fill-rule:nonzero;stroke:none"
             id="path64" /></g><g
           id="g66"
           transform="translate(84.0075,147.2812)"><path
             d="m 0,0 c 0.001,-2.523 -0.044,-5.047 0.02,-7.568 0.031,-1.197 -0.475,-1.529 -1.581,-1.515 -1.102,0.015 -1.626,0.362 -1.566,1.553 0.076,1.501 -0.034,3.011 0.03,4.513 0.053,1.234 -0.493,1.64 -1.663,1.618 -2.433,-0.044 -4.869,0.031 -7.302,-0.031 -1.148,-0.029 -1.57,0.378 -1.581,1.531 -0.011,1.117 0.295,1.6 1.498,1.567 2.521,-0.07 5.046,0.005 7.568,-0.026 1.028,-0.012 1.549,0.278 1.486,1.439 -0.085,1.545 0.019,3.098 -0.02,4.646 C -3.142,8.942 -2.496,9.17 -1.441,9.2 -0.298,9.233 0.026,8.747 0.011,7.701 -0.025,5.135 -0.001,2.567 0,0"
             style="fill:#ffffff;fill-opacity:1;fill-rule:nonzero;stroke:none"
             id="path68" /></g><g
           id="g70"
           transform="translate(68.8341,147.2292)"><path
             d="m 0,0 c 0.002,-2.474 -0.029,-4.948 0.015,-7.421 0.021,-1.163 -0.39,-1.716 -1.611,-1.698 -1.205,0.017 -1.752,0.456 -1.741,1.739 0.043,4.991 0.037,9.984 -0.004,14.976 -0.01,1.247 0.473,1.745 1.714,1.766 C -0.302,9.385 0.035,8.739 0.013,7.554 -0.034,5.037 -0.002,2.518 0,0"
             style="fill:#ffffff;fill-opacity:1;fill-rule:nonzero;stroke:none"
             id="path72" /></g><g
           id="g74"
           transform="translate(159.3171,147.3576)"><path
             d="m 0,0 c 0.002,-2.522 -0.034,-5.044 0.017,-7.565 0.023,-1.129 -0.371,-1.592 -1.535,-1.592 -1.105,10e-4 -1.637,0.344 -1.63,1.514 0.027,5.087 0.028,10.175 0.011,15.263 -0.004,1.194 0.501,1.607 1.696,1.607 1.26,0 1.464,-0.623 1.45,-1.662 C -0.024,5.044 -0.002,2.522 0,0"
             style="fill:#ffffff;fill-opacity:1;fill-rule:nonzero;stroke:none"
             id="path76" /></g></g></g></g></svg>
