<?xml version="1.0" encoding="UTF-8" standalone="no"?>
<svg
   xmlns:dc="http://purl.org/dc/elements/1.1/"
   xmlns:cc="http://creativecommons.org/ns#"
   xmlns:rdf="http://www.w3.org/1999/02/22-rdf-syntax-ns#"
   xmlns:svg="http://www.w3.org/2000/svg"
   xmlns="http://www.w3.org/2000/svg"
   xmlns:sodipodi="http://sodipodi.sourceforge.net/DTD/sodipodi-0.dtd"
   xmlns:inkscape="http://www.inkscape.org/namespaces/inkscape"
   version="1.1"
   id="svg2"
   xml:space="preserve"
   width="1066.6667"
   height="1066.6667"
   viewBox="0 0 1066.6667 1066.6667"
   sodipodi:docname="ural holidays logo.ai"><metadata
     id="metadata8"><rdf:RDF><cc:Work
         rdf:about=""><dc:format>image/svg+xml</dc:format><dc:type
           rdf:resource="http://purl.org/dc/dcmitype/StillImage" /></cc:Work></rdf:RDF></metadata><defs
     id="defs6"><clipPath
       clipPathUnits="userSpaceOnUse"
       id="clipPath20"><path
         d="M 0,800 H 800 V 0 H 0 Z"
         id="path18" /></clipPath></defs><sodipodi:namedview
     pagecolor="#ffffff"
     bordercolor="#666666"
     borderopacity="1"
     objecttolerance="10"
     gridtolerance="10"
     guidetolerance="10"
     inkscape:pageopacity="0"
     inkscape:pageshadow="2"
     inkscape:window-width="640"
     inkscape:window-height="480"
     id="namedview4" /><g
     id="g10"
     inkscape:groupmode="layer"
     inkscape:label="ural holidays logo"
     transform="matrix(1.3333333,0,0,-1.3333333,0,1066.6667)"><path
       d="M 0,0 H 800 V 800 H 0 Z"
       style="fill:#5c0632;fill-opacity:1;fill-rule:nonzero;stroke:none"
       id="path12" /><g
       id="g14" ><g
         id="g16" style="transform: translate(0px, -30px);"
         clip-path="url(#clipPath20)"><g
           id="g22"
           transform="translate(604.0566,425.3506)"><path
             d="m 0,0 c -1.305,1.131 -0.868,1.984 -0.625,2.81 1.374,4.81 2.67,9.647 4.184,14.423 1.149,3.619 2.993,6.967 4.08,10.646 3.07,10.35 6.027,20.753 9.645,30.923 2.08,5.827 3.906,11.715 5.872,17.569 0.417,1.272 1.252,2.733 0.156,3.915 -1.053,1.131 -2.487,0.218 -3.609,-0.147 -11.559,-3.759 -23.591,-5.534 -35.35,-8.431 -10.326,-2.547 -20.833,-4.079 -31.184,-6.393 -10.472,-2.347 -21.094,-3.738 -31.635,-5.582 -15.031,-2.628 -30.148,-4.549 -45.31,-6.219 -13.7,-1.506 -27.383,-3.272 -41.133,-4.089 -16.519,-0.984 -33.072,-1.897 -49.641,-1.541 -0.766,0.009 -1.533,0.105 -2.401,0.584 2.044,0.688 4.035,1.625 6.133,1.999 10.349,1.88 20.754,3.481 31.094,5.438 9.066,1.712 18.068,3.774 27.095,5.689 10.577,2.234 21.025,5.035 31.472,7.732 10.725,2.774 21.476,5.558 32.036,9.02 5.827,1.913 11.855,3.14 17.665,5.229 10.726,3.852 21.642,7.141 32.401,10.871 7.986,2.768 15.928,5.68 23.755,8.847 13.127,5.306 26.496,10.011 39.352,15.979 7.662,3.559 15.449,6.872 23.043,10.595 15.004,7.348 29.973,14.777 44.525,23.007 5.211,2.957 10.377,5.983 15.579,8.967 0.931,0.539 1.888,1.027 3.131,1.296 C 74.163,108.408 36.987,54.417 0,0"
             style="fill:#ffffff;fill-opacity:1;fill-rule:nonzero;stroke:none"
             id="path24" /></g><g
           id="g26"
           transform="translate(278.5332,409.5718)"><path
             d="m 0,0 c 0,15.389 0,30.767 0.009,46.145 0,4.22 0.009,4.22 4.331,4.22 24.06,0 48.118,0.033 72.179,-0.009 7.619,-0.009 15.108,-0.862 22.015,-4.498 8.446,-4.462 12.056,-11.916 12.439,-21.005 0.383,-9.047 0.668,-18.128 -0.679,-27.149 -0.392,-2.556 -1.879,-4.496 -3.654,-6.106 -1.599,-1.442 -1.252,-2.627 0.08,-3.636 4.199,-3.182 5.349,-7.707 5.453,-12.535 0.174,-7.688 0.009,-15.386 0.105,-23.075 0.024,-1.94 -0.697,-2.661 -2.568,-2.644 -6.401,0.06 -12.813,0.129 -19.223,0.06 -2.174,-0.026 -2.94,0.713 -2.862,2.922 0.149,4.531 0.087,9.074 0.045,13.605 -0.069,7.375 -3.923,11.734 -11.178,12.847 -3.14,0.487 -6.298,0.365 -9.446,0.374 -12.918,0.018 -25.833,-0.078 -38.751,0.068 -2.974,0.028 -3.732,-1.104 -3.687,-3.816 0.102,-7.586 -0.062,-15.18 0.096,-22.772 0.06,-2.533 -0.853,-3.263 -3.229,-3.228 -6.115,0.097 -12.221,0.114 -18.335,-0.009 -2.401,-0.044 -3.227,0.696 -3.209,3.209 0.111,15.675 0.06,31.358 0.06,47.032 z m 52.99,25.583 v -0.009 c -8.09,0 -16.17,0.009 -24.26,0 -4.385,0 -4.376,-0.009 -4.358,-4.515 0.018,-4.341 0.009,-8.681 0.009,-13.02 0,-3.855 0.165,-4.062 3.966,-4.062 15.578,-0.018 31.157,-0.018 46.744,0.006 1.472,0 2.959,0.114 4.411,0.368 4.706,0.817 6.611,2.338 6.986,7.037 0.755,9.506 -0.158,14.473 -11.604,14.229 -7.3,-0.156 -14.596,-0.034 -21.894,-0.034"
             style="fill:#ffffff;fill-opacity:1;fill-rule:nonzero;stroke:none"
             id="path28" /></g><g
           id="g30"
           transform="translate(401.5615,359.4961)"><path
             d="m 0,0 c 1.497,4.872 3.993,8.551 5.959,12.466 5.244,10.394 10.611,20.735 15.969,31.078 5.742,11.065 11.543,22.103 17.293,33.166 3.672,7.054 7.332,14.118 10.899,21.226 0.86,1.721 2.009,2.52 3.906,2.513 11.045,-0.026 22.092,-0.009 33.139,-0.017 1.915,0 3.02,-0.628 3.983,-2.646 3.585,-7.479 7.56,-14.786 11.397,-22.145 4.349,-8.332 8.716,-16.649 13.047,-24.991 6.959,-13.412 13.899,-26.841 20.84,-40.273 1.392,-2.696 2.75,-5.418 4.141,-8.114 0.758,-1.479 0.288,-2.359 -1.331,-2.367 -8.29,-0.025 -16.569,0 -24.859,0.017 -1.557,0 -2.105,1.122 -2.706,2.322 -3.017,6.074 -6.141,12.083 -9.116,18.18 -1.096,2.245 -2.625,3.044 -5.13,3.035 -17.851,-0.087 -35.707,-0.078 -53.557,0.018 -2.757,0.009 -4.262,-1 -5.462,-3.478 C 35.41,13.795 32.07,7.767 28.931,1.637 28.496,0.775 28.068,0.018 27.069,0.018 18.222,-0.009 9.368,0 0,0 M 89.55,45.11 C 83.687,57.019 77.659,68.987 70.952,81.181 70.239,80.155 69.985,79.858 69.812,79.529 64.14,68.874 58.462,58.228 52.817,47.564 c -1.532,-2.888 -1.245,-3.34 2.017,-3.349 10.533,-0.009 21.077,-0.009 31.609,0.015 0.94,0 1.985,-0.303 3.107,0.88"
             style="fill:#ffffff;fill-opacity:1;fill-rule:nonzero;stroke:none"
             id="path32" /></g><g
           id="g34"
           transform="translate(145.6758,422.5156)"><path
             d="m 0,0 v 32.235 c 0,5.019 0,5.028 5.139,5.028 5.229,0.009 10.457,-0.112 15.674,0.044 2.837,0.096 3.792,-0.931 3.777,-3.758 -0.087,-19.527 -0.045,-39.047 -0.062,-58.565 0,-2.965 0.209,-5.862 1.176,-8.733 1.469,-4.357 4.495,-6.898 8.836,-7.76 4.333,-0.859 8.708,-1.478 13.186,-1.391 7.785,0.149 15.579,0.113 23.372,0 3.777,-0.061 7.465,0.469 11.143,1.122 5.672,1.008 9.439,5.063 10.187,10.813 0.39,3.017 0.617,6.052 0.617,9.114 -0.035,18.242 -0.018,36.481 0.009,54.723 0.009,4.208 0.21,4.373 4.296,4.373 5.62,0 11.238,-0.069 16.858,0.027 2.461,0.053 3.296,-0.982 3.296,-3.349 -0.06,-21.981 0.036,-43.97 -0.12,-65.95 -0.036,-5.403 -0.925,-10.715 -3.245,-15.77 -4.01,-8.733 -11.334,-12.64 -20.216,-13.909 -20.493,-2.923 -41.124,-1.209 -61.697,-1.14 -5.854,0.018 -11.793,1.254 -17.126,3.992 -8.42,4.326 -12.9,11.491 -14.336,20.739 -0.548,3.522 -0.74,7.054 -0.746,10.601 C 0,-18.335 0.009,-9.176 0.009,0 Z"
             style="fill:#ffffff;fill-opacity:1;fill-rule:nonzero;stroke:none"
             id="path36" /></g><g
           id="g38"
           transform="translate(552.0068,409.8257)"><path
             d="m 0,0 c 0,15.482 0.087,30.957 -0.078,46.43 -0.033,3.044 1.122,4.262 3.818,4.019 6.115,-0.538 12.197,0.087 18.284,0.227 2.018,0.043 2.67,-0.852 2.731,-2.567 0.053,-1.383 0.017,-2.766 0.017,-4.139 0.009,-23.07 0.009,-46.137 0.018,-69.204 0,-4.472 0.009,-4.498 4.603,-4.498 17.838,-0.018 35.679,-0.009 53.529,-0.009 3.801,0 4.017,-0.2 4.026,-4.002 0.009,-4.435 -0.191,-8.888 0.06,-13.306 0.158,-2.828 -0.877,-3.55 -3.514,-3.533 -12.812,0.096 -25.632,0.052 -38.444,0.043 -13.607,0 -27.209,-0.006 -40.813,-0.024 -4.271,-0.009 -4.228,-0.027 -4.228,4.131 C 0.026,-30.95 0.018,-15.474 0.018,0 Z"
             style="fill:#ffffff;fill-opacity:1;fill-rule:nonzero;stroke:none"
             id="path40" /></g><g
           id="g42"
           transform="translate(618.1143,348.4229)"><path
             d="m 0,0 c 5.436,0 10.177,-0.165 14.899,0.062 3.044,0.147 3.072,-1.556 3.08,-3.706 0.009,-2.106 0.147,-3.836 -2.939,-3.776 -8.272,0.176 -16.562,0.071 -24.844,0.071 -1.078,0 -2.174,0.042 -3.245,-0.071 -2.313,-0.233 -3.983,-1.416 -4.13,-3.834 -0.156,-2.559 1.652,-3.75 3.87,-3.96 2.742,-0.26 5.516,-0.146 8.273,-0.164 4.043,-0.018 8.08,0.026 12.124,-0.018 10.1,-0.129 16.303,-9.237 12.274,-18.414 -1.601,-3.653 -4.861,-5.809 -8.924,-6.533 -4.002,-0.721 -8.028,-0.757 -12.075,-0.73 -6.504,0.036 -13.01,0.105 -19.517,0.009 -2.933,-0.042 -3.672,1.349 -3.681,4.01 0,2.706 1.113,3.688 3.724,3.67 8.873,-0.06 17.745,-0.009 26.616,-0.024 2.011,-0.009 3.915,0.294 5.656,1.383 1.634,1.017 2.625,2.418 2.338,4.399 -0.27,1.897 -1.348,3.272 -3.227,3.837 -1.975,0.6 -3.957,1.122 -6.079,1.104 -5.907,-0.044 -11.831,-0.122 -17.736,0.052 -8.49,0.254 -13.432,6.429 -11.552,14.362 1.008,4.245 3.984,6.777 8.108,7.663 C -11.151,0.652 -5.192,-0.321 0,0"
             style="fill:#ffffff;fill-opacity:1;fill-rule:nonzero;stroke:none"
             id="path44" /></g><g
           id="g46"
           transform="translate(239.0508,348.4072)"><path
             d="m 0,0 c 3.968,-0.2 9.038,0.521 13.83,-1.637 8.221,-3.715 11.918,-10.332 11.412,-20.649 -0.398,-8.063 -5.357,-15.413 -13.282,-17.266 -9.219,-2.149 -18.77,-2.844 -27.895,0.879 -6.636,2.713 -10.167,8.184 -11.23,15.073 -1.609,10.344 3.263,18.876 12.96,22.546 C -10.021,0.539 -5.445,0.009 0,0 m -0.183,-7.342 c -2.756,0 -4.827,0.042 -6.896,-0.009 -7.195,-0.182 -12.692,-6.045 -12.675,-13.465 0.018,-7.054 5.28,-12.37 12.544,-12.526 4.124,-0.096 8.263,-0.068 12.394,0.009 6.689,0.132 11.588,4.157 12.77,10.422 1.123,5.94 -2.131,11.541 -7.829,14.393 -3.627,1.811 -7.342,0.802 -10.308,1.176"
             style="fill:#ffffff;fill-opacity:1;fill-rule:nonzero;stroke:none"
             id="path48" /></g><g
           id="g50"
           transform="translate(384.1553,327.834)"><path
             d="m 0,0 v 17.449 c 0,1.559 0.087,3.14 2.211,3.106 8.375,-0.122 16.804,0.721 25.111,-0.374 C 38.465,18.711 45.397,8.168 43.589,-2.913 42.015,-12.532 33.847,-19.77 25.061,-20.119 17.571,-20.415 10.092,-20.17 2.619,-20.466 0.419,-20.544 -0.009,-19.266 0,-17.449 0.036,-11.628 0.009,-5.818 0.009,0 Z m 6.968,0.305 c 0,-3.549 0,-7.097 -0.009,-10.637 0,-1.619 0.532,-2.619 2.394,-2.592 5.321,0.069 10.655,-0.182 15.96,0.155 6.505,0.419 10.916,5.959 11.177,12.631 0.296,7.602 -6.27,13.117 -11.568,13.42 -5.114,0.287 -10.248,0.063 -15.378,0.054 -1.775,0 -2.672,-0.739 -2.61,-2.688 C 7.045,7.203 6.968,3.75 6.968,0.305"
             style="fill:#ffffff;fill-opacity:1;fill-rule:nonzero;stroke:none"
             id="path52" /></g><g
           id="g54"
           transform="translate(503.6104,308.2988)"><path
             d="m 0,0 c -2.931,-0.688 -5.576,-0.219 -8.194,-0.261 -0.774,-0.009 -1.157,0.599 -1.513,1.227 -1.263,2.174 -2.601,4.322 -3.846,6.505 -1.244,2.184 -2.957,3.061 -5.566,2.905 -3.933,-0.233 -7.881,-0.077 -11.831,-0.051 -0.938,0.009 -2.077,-0.323 -2.653,0.773 -0.547,1.035 0.375,1.741 0.713,2.619 1.661,4.357 5.133,4.444 8.943,4.297 3.619,-0.14 3.793,0.269 2.122,3.367 -1.227,2.269 -2.199,4.732 -4.6,6.253 -2.29,-1.174 -3.428,-3.418 -4.445,-5.54 -3.568,-7.42 -8.892,-13.753 -12.734,-20.99 -0.419,-0.782 -1.072,-1.427 -2.089,-1.427 h -7.193 c 0.122,3.011 1.975,4.863 3.149,6.872 5.836,10.02 12.082,19.815 17.883,29.853 2.627,4.559 8.682,3.931 10.7,0.635 C -13.986,25.303 -7.055,13.43 -0.306,1.442 -0.132,1.14 -0.147,0.712 0,0"
             style="fill:#ffffff;fill-opacity:1;fill-rule:nonzero;stroke:none"
             id="path56" /></g><g
           id="g58"
           transform="translate(544.0127,307.3076)"><path
             d="m 0,0 c -0.53,3.905 -0.261,7.645 -0.261,11.377 0,1.574 -0.478,2.801 -1.433,4.027 -5.777,7.453 -11.491,14.96 -17.225,22.45 -0.643,0.836 -1.643,1.626 -0.964,2.844 0.616,1.122 1.799,0.393 2.688,0.626 5.505,1.47 7.533,-2.87 10.133,-6.105 2.835,-3.524 5.436,-7.246 8.247,-10.787 1.999,-2.505 2.774,-2.469 4.696,0.131 3.39,4.585 6.689,9.237 10.012,13.874 1.618,2.27 6.724,3.698 9.229,2.513 1.548,-0.739 0.722,-1.598 0.191,-2.619 C 22.929,33.758 19.109,30.253 16.239,26.042 14.213,23.076 12.064,20.17 9.76,17.413 6.977,14.082 6.994,10.228 7.063,6.244 7.168,-0.392 6.907,-0.557 0,0"
             style="fill:#ffffff;fill-opacity:1;fill-rule:nonzero;stroke:none"
             id="path60" /></g><g
           id="g62"
           transform="translate(287.0576,328.1475)"><path
             d="m 0,0 c 0,5.714 0,11.431 -0.009,17.153 0,1.922 0.147,3.453 2.828,3.367 2.487,-0.069 4.66,-0.131 4.696,-3.349 0.051,-4.636 0.043,-9.264 0.043,-13.9 0,-4.435 0.053,-8.874 -0.043,-13.309 -0.044,-2.287 0.895,-3.14 3.167,-3.112 7.096,0.077 14.195,-0.063 21.292,0.05 2.679,0.045 3.732,-0.895 3.618,-3.627 -0.155,-3.601 -0.503,-4.209 -3.705,-4.217 -9.559,-0.045 -19.128,0.05 -28.687,-0.096 -2.575,-0.045 -3.261,1 -3.236,3.295 0.062,5.917 0.018,11.831 0.018,17.745 z"
             style="fill:#ffffff;fill-opacity:1;fill-rule:nonzero;stroke:none"
             id="path64" /></g><g
           id="g66"
           transform="translate(186.8618,327.7559)"><path
             d="m 0,0 c 0,-5.618 -0.096,-11.238 0.042,-16.848 0.072,-2.67 -1.06,-3.409 -3.522,-3.376 -2.452,0.037 -3.619,0.802 -3.487,3.454 0.174,3.349 -0.07,6.707 0.069,10.056 0.122,2.748 -1.096,3.644 -3.706,3.601 -5.411,-0.096 -10.837,0.069 -16.257,-0.069 -2.556,-0.071 -3.496,0.842 -3.523,3.41 -0.025,2.487 0.661,3.555 3.34,3.487 5.611,-0.156 11.239,0.009 16.85,-0.061 2.287,-0.026 3.451,0.626 3.314,3.209 -0.192,3.436 0.035,6.899 -0.045,10.343 -0.069,2.706 1.367,3.218 3.714,3.278 2.55,0.08 3.272,-1.008 3.238,-3.34 C -0.053,11.439 0,5.716 0,0"
             style="fill:#ffffff;fill-opacity:1;fill-rule:nonzero;stroke:none"
             id="path68" /></g><g
           id="g70"
           transform="translate(153.0776,327.6426)"><path
             d="m 0,0 c 0,-5.514 -0.069,-11.021 0.027,-16.525 0.051,-2.592 -0.862,-3.819 -3.586,-3.786 -2.687,0.045 -3.905,1.018 -3.878,3.873 0.095,11.116 0.086,22.232 -0.009,33.348 -0.018,2.775 1.053,3.888 3.819,3.932 2.948,0.052 3.696,-1.382 3.654,-4.019 C -0.078,11.214 -0.009,5.603 0,0"
             style="fill:#ffffff;fill-opacity:1;fill-rule:nonzero;stroke:none"
             id="path72" /></g><g
           id="g74"
           transform="translate(354.5552,327.9297)"><path
             d="m 0,0 c 0.009,-5.618 -0.078,-11.238 0.044,-16.848 0.042,-2.513 -0.826,-3.549 -3.418,-3.549 -2.462,0.008 -3.654,0.766 -3.636,3.376 0.06,11.325 0.06,22.659 0.027,33.985 -0.009,2.66 1.113,3.582 3.774,3.582 2.81,0 3.262,-1.392 3.227,-3.705 C -0.051,11.229 0,5.611 0,0"
             style="fill:#ffffff;fill-opacity:1;fill-rule:nonzero;stroke:none"
             id="path76" /></g></g></g></g></svg>
